<svg xmlns="http://www.w3.org/2000/svg" width="527.176" height="225.73" viewBox="0 0 527.176 225.73">
  <g id="Group_4" data-name="Group 4" transform="translate(-533.694 -763.72)">
    <g id="_Group_" data-name="&lt;Group&gt;">
      <g id="_Group_2" data-name="&lt;Group&gt;">
        <path id="_Path_" data-name="&lt;Path&gt;" d="M705.43,945.07H563.36a29.634,29.634,0,0,1-26.9-42.06l64.35-139.29,31.76,47.44-40.44,76.76a11.06,11.06,0,0,0,9.78,16.21h71.21Z" fill="#00bdff"/>
      </g>
      <g id="_Group_3" data-name="&lt;Group&gt;">
        <path id="_Path_2" data-name="&lt;Path&gt;" d="M580.31,808.1H722.38a29.632,29.632,0,0,1,26.9,42.06L684.92,989.45l-33.57-44.38,42.25-79.83a11.056,11.056,0,0,0-9.78-16.21H612.61Z" fill="#1679ef"/>
      </g>
      <g id="_Group_4" data-name="&lt;Group&gt;">
        <path id="_Path_3" data-name="&lt;Path&gt;" d="M633.46,904.13h39.66l32.31,40.94H626.58Z" fill="#00bdff"/>
      </g>
    </g>
    <g id="_Group_5" data-name="&lt;Group&gt;">
      <path id="_Compound_Path_" data-name="&lt;Compound Path&gt;" d="M811.31,924.37a27.241,27.241,0,0,1-11.17-11.71,39.359,39.359,0,0,1-3.88-18.06V879.85a39.389,39.389,0,0,1,3.88-18.06,27.241,27.241,0,0,1,11.17-11.71,38.4,38.4,0,0,1,34.41,0,27.242,27.242,0,0,1,11.17,11.71,39.39,39.39,0,0,1,3.88,18.06V894.6a39.36,39.36,0,0,1-3.88,18.06,27.241,27.241,0,0,1-11.17,11.71,38.4,38.4,0,0,1-34.41,0Zm28.47-9.22a18.253,18.253,0,0,0,7.33-7.89,27.214,27.214,0,0,0,2.55-12.21V879.41a27.228,27.228,0,0,0-2.55-12.22,18.253,18.253,0,0,0-7.33-7.89,24.448,24.448,0,0,0-22.53,0,18.173,18.173,0,0,0-7.32,7.89,27.094,27.094,0,0,0-2.56,12.22v15.64a27.08,27.08,0,0,0,2.56,12.21,18.173,18.173,0,0,0,7.32,7.89,24.448,24.448,0,0,0,22.53,0Z" fill="#fff" fill-rule="evenodd"/>
      <path id="_Compound_Path_2" data-name="&lt;Compound Path&gt;" d="M874.58,869.35h9.77V927.6h-9.77Zm29.01,9.32a16.345,16.345,0,0,0-5.83-.96q-6.405,0-9.91,3.46t-3.5,9.56l-1.18-11.22a21.618,21.618,0,0,1,7.66-8.11,19.677,19.677,0,0,1,10.41-2.89,21.6,21.6,0,0,1,7.21,1.15,16.028,16.028,0,0,1,5.63,3.4l-6.33,8.41A10.315,10.315,0,0,0,903.59,878.67Z" fill="#fff"/>
      <path id="_Compound_Path_3" data-name="&lt;Compound Path&gt;" d="M924.47,846.01h9.76v9.77h-9.76Zm0,23.34h9.76V927.6h-9.76Z" fill="#fff"/>
      <path id="_Compound_Path_4" data-name="&lt;Compound Path&gt;" d="M968.23,928.44q-1.9-1.02-5.72-3.06a20.394,20.394,0,0,1-8.73-8.92,30.656,30.656,0,0,1-3-14.11v-6.57a34.217,34.217,0,0,1,2.89-14.75,20.659,20.659,0,0,1,8.39-9.32,25.938,25.938,0,0,1,13.24-3.2,22.105,22.105,0,0,1,12.46,3.4,21.249,21.249,0,0,1,7.88,9.84,39.881,39.881,0,0,1,2.72,15.55v5.22H957.68v-8.2h31.48v-.28q-.225-7.9-3.84-12.26t-10.02-4.35q-7.35,0-11.33,4.63t-3.99,13.11v7.4q0,8.025,4.27,12.35t12.06,4.32a19.27,19.27,0,0,0,7.47-1.55,20.562,20.562,0,0,0,6.56-4.34l6.51,6.39a31.054,31.054,0,0,1-9.65,6.43,27.873,27.873,0,0,1-10.89,2.27Z" fill="#fff"/>
      <path id="_Compound_Path_5" data-name="&lt;Compound Path&gt;" d="M1014.08,869.35h9.76V927.6h-9.76Zm37.03,22.95q0-6.945-3.62-10.77t-10.24-3.82q-6.405,0-9.9,3.37t-3.51,9.54l-1.18-11.22a19.345,19.345,0,0,1,7.6-8.19,21.348,21.348,0,0,1,10.75-2.7q9.48,0,14.67,6.2t5.19,17.54V927.6h-9.76Z" fill="#fff"/>
    </g>
  </g>
</svg>
