<svg width="84" height="28" viewBox="0 0 84 28" fill="none" xmlns="http://www.w3.org/2000/svg">
<path d="M1 11.3636L7.89894 16.9219C8.99777 17.8071 10.6432 17.3068 11.0631 15.9596L11.4276 14.7902C11.9572 13.0912 14.2756 12.8781 15.1059 14.4523L16.2961 16.7085C17.0726 18.1804 19.2022 18.1155 19.8876 16.599L22.1421 11.6108C22.8565 10.03 25.107 10.0462 25.7987 11.6371L31.5601 24.8881C32.3312 26.6617 34.9201 26.417 35.3453 24.5304L40.1281 3.30673C40.5926 1.24553 43.5202 1.21905 44.0219 3.27151L46.3741 12.8942C46.7943 14.6129 49.0752 14.9797 50.0129 13.4793L54.5388 6.23784C55.5341 4.64548 57.9768 5.17852 58.2182 7.04073L60.0549 21.2092C60.3169 23.2305 63.0806 23.6106 63.8786 21.7352L68.6284 10.5732C69.3832 8.79936 71.9636 9.01504 72.4135 10.8895L73.6822 16.1759C73.874 16.9748 74.5348 17.5752 75.3484 17.6897L83 18.7662" stroke="#FC5555" stroke-width="2"/>
</svg>
