<svg width="84" height="27" viewBox="0 0 84 27" fill="none" xmlns="http://www.w3.org/2000/svg">
<path d="M1 14.3636L8.37634 20.3065C9.32967 21.0745 10.7431 20.8135 11.3593 19.7557L12.4666 17.8546C13.2998 16.4241 15.4108 16.5674 16.0432 18.0973L16.5151 19.239C17.1723 20.829 19.3972 20.9023 20.1575 19.359L23.747 12.0731C24.5506 10.442 26.9377 10.6427 27.4576 12.3852L28.6661 16.4355C29.0832 17.8336 30.8086 18.3289 31.9039 17.365L37.8649 12.1189C37.9548 12.0398 38.0374 11.9528 38.1117 11.8589L44.539 3.74016C45.6399 2.34963 47.8717 2.97366 48.0917 4.7335L48.924 11.3921C48.9735 11.7883 49.1405 12.1606 49.4034 12.461L53.3716 16.9961C54.35 18.1143 56.163 17.813 56.727 16.4384L62.228 3.03269C62.9344 1.31122 65.4028 1.40279 65.9797 3.17188L69.8227 14.9564C69.9386 15.3117 70.1517 15.6274 70.4378 15.8678L82.5 26" stroke="#FC5555" stroke-width="2"/>
</svg>
