<svg width="86" height="18" viewBox="0 0 86 18" fill="none" xmlns="http://www.w3.org/2000/svg">
<path d="M1 6.36364L7.89894 11.9219C8.99777 12.8071 10.6432 12.3068 11.0631 10.9596L11.4276 9.79022C11.9572 8.09116 14.2756 7.87815 15.1059 9.45225L16.071 11.2817C16.8656 12.788 19.0815 12.5943 19.6027 10.973V10.973C20.23 9.02125 23.0683 9.27497 23.3395 11.307L23.8349 15.0175C24.0742 16.8106 26.3817 17.3899 27.4396 15.9224L37.0698 2.56451C38.1264 1.09884 40.4309 1.67467 40.674 3.4651L42.256 15.1201C42.4974 16.899 44.7788 17.4836 45.846 16.0401L51.2208 8.77026C52.0681 7.6242 53.8081 7.70697 54.5428 8.92828L58.6391 15.7378C59.3223 16.8734 60.901 17.0426 61.8093 16.0776L66.6269 10.9589C67.3849 10.1535 68.6525 10.1162 69.4565 10.8756L75.0873 16.1936C76.0488 17.1016 77.6112 16.8432 78.2289 15.6738L85 2.85715" stroke="#5B9279" stroke-width="2"/>
</svg>
