<svg width="20" height="20" viewBox="0 0 20 20" fill="none" xmlns="http://www.w3.org/2000/svg">
<mask id="mask0_206_905" style="mask-type:alpha" maskUnits="userSpaceOnUse" x="0" y="0" width="20" height="20">
<rect width="20" height="20" rx="10" fill="#C4C4C4"/>
</mask>
<g mask="url(#mask0_206_905)">
<path d="M20 0H0V20H20V0Z" fill="white"/>
<path d="M6.10352e-05 0H20.0001V20H6.10352e-05V0Z" fill="white"/>
<path d="M8.07413 0H11.926V20H8.07413V0ZM6.10352e-05 8H20.0001V12H6.10352e-05V8Z" fill="#FF0000"/>
<path d="M4.36652 3C4.7652 3.05993 5.16903 3.05993 5.56772 3C5.33627 4.32018 5.33627 5.67982 5.56772 7C5.16903 6.94007 4.7652 6.94007 4.36652 7C4.59797 5.67982 4.59797 4.32018 4.36652 3Z" fill="#FF0000"/>
<path d="M7.00397 4.34839C6.94398 4.70888 6.94398 5.07402 7.00397 5.43452C5.68247 5.22524 4.32146 5.22524 2.99996 5.43452C3.05995 5.07402 3.05995 4.70888 2.99996 4.34839C4.32146 4.55767 5.68247 4.55767 7.00397 4.34839Z" fill="#FF0000"/>
<path d="M14.3665 13C14.7652 13.0599 15.169 13.0599 15.5677 13C15.3363 14.3202 15.3363 15.6798 15.5677 17C15.169 16.9401 14.7652 16.9401 14.3665 17C14.598 15.6798 14.598 14.3202 14.3665 13Z" fill="#FF0000"/>
<path d="M17.004 14.3484C16.944 14.7089 16.944 15.074 17.004 15.4345C15.6825 15.2252 14.3215 15.2252 13 15.4345C13.06 15.074 13.06 14.7089 13 14.3484C14.3215 14.5577 15.6825 14.5577 17.004 14.3484Z" fill="#FF0000"/>
<path d="M14.3665 3C14.7652 3.05993 15.169 3.05993 15.5677 3C15.3363 4.32018 15.3363 5.67982 15.5677 7C15.169 6.94007 14.7652 6.94007 14.3665 7C14.598 5.67982 14.598 4.32018 14.3665 3Z" fill="#FF0000"/>
<path d="M17.004 4.34839C16.944 4.70888 16.944 5.07402 17.004 5.43452C15.6825 5.22524 14.3215 5.22524 13 5.43452C13.06 5.07402 13.06 4.70888 13 4.34839C14.3215 4.55767 15.6825 4.55767 17.004 4.34839Z" fill="#FF0000"/>
<path d="M4.36652 13C4.7652 13.0599 5.16903 13.0599 5.56772 13C5.33627 14.3202 5.33627 15.6798 5.56772 17C5.16903 16.9401 4.7652 16.9401 4.36652 17C4.59797 15.6798 4.59797 14.3202 4.36652 13Z" fill="#FF0000"/>
<path d="M7.00397 14.3484C6.94398 14.7089 6.94398 15.074 7.00397 15.4345C5.68247 15.2252 4.32146 15.2252 2.99996 15.4345C3.05995 15.074 3.05995 14.7089 2.99996 14.3484C4.32146 14.5577 5.68247 14.5577 7.00397 14.3484Z" fill="#FF0000"/>
</g>
</svg>
