<svg width="22" height="22" viewBox="0 0 22 22" fill="none" xmlns="http://www.w3.org/2000/svg">
<rect x="1.26312" y="1.02625" width="19.9474" height="19.9474" rx="9.97368" stroke="#5A667C" stroke-opacity="0.06"/>
<mask id="mask0_206_895" style="mask-type:alpha" maskUnits="userSpaceOnUse" x="1" y="1" width="21" height="20">
<rect x="1.5" y="1" width="20" height="20" rx="10" fill="#C4C4C4"/>
</mask>
<g mask="url(#mask0_206_895)">
<path d="M28.1629 1H-5.172V21.0009H28.1629V1Z" fill="white"/>
<path d="M-5.172 1V2.5548L3.34772 7.6669L5.93924 7.66684L-5.172 1ZM9.49533 1V8.9997H-5.172V12.9973H9.49533V21.001H13.4954V12.9973H28.1627V8.9997H13.4954V1H9.49533ZM25.5707 1L14.8282 7.44529V7.66685H17.0507L28.1619 1.00001L25.5707 1ZM5.91117 14.3339L-5.17267 21.0009H-2.58102L8.16081 14.5553V14.3339L5.91117 14.3339ZM17.051 14.3339L28.1622 21.0009V19.446L19.6438 14.3339H17.051Z" fill="#C8102E"/>
<path d="M-1.27182 1L8.16194 6.66706V1H-1.27182ZM14.8289 1V6.66799L24.276 1H14.8289ZM-5.172 3.33244V7.66637L2.05233 7.66687L-5.172 3.33244ZM28.1629 3.33258L20.9392 7.66684H28.1629V3.33258ZM-5.172 14.3337V18.6687L2.05167 14.3337H-5.172ZM20.9419 14.3337L28.1629 18.7179V14.3337H20.9419ZM14.829 15.3329V21.0007H24.2761L14.829 15.3329ZM8.16201 15.3331L-1.28442 21.0007H8.16201V15.3331Z" fill="#012169"/>
</g>
</svg>
