<svg width="14" height="16" viewBox="0 0 14 16" fill="none" xmlns="http://www.w3.org/2000/svg">
<path d="M13.2834 5.86502C13.2817 5.8632 13.2798 5.86141 13.278 5.85959L7.68439 0.258624C7.63995 0.214421 7.59084 0.175159 7.53795 0.141491L7.37689 0.0536331L7.26707 0.017014H7.18652C7.0631 -0.00567132 6.93657 -0.00567132 6.81312 0.017014H6.73992H6.65206L6.52758 0.0829077C6.45822 0.120591 6.39418 0.167368 6.33721 0.222005L0.721618 5.85959C0.345577 6.23265 0.343141 6.83994 0.716196 7.21598C0.71798 7.21779 0.719799 7.21958 0.721618 7.2214C1.10068 7.58306 1.69702 7.58306 2.07611 7.2214L5.42204 3.88278C5.56639 3.74125 5.79818 3.74351 5.93972 3.88789C6.00558 3.95506 6.04305 4.04498 6.04436 4.13905V15.0408C6.04432 15.5705 6.4737 16 7.00342 16C7.53315 16 7.96255 15.5707 7.96262 15.0409C7.96262 15.0409 7.96262 15.0408 7.96262 15.0408V4.13905C7.96547 3.9369 8.13165 3.77529 8.33379 3.77814C8.42783 3.77948 8.51778 3.81692 8.58494 3.88278L11.9162 7.2214C12.2963 7.58773 12.898 7.58773 13.2781 7.2214C13.6541 6.84834 13.6565 6.24106 13.2834 5.86502Z" fill="#3A4B5A"/>
</svg>
